<?xml version="1.0" encoding="utf-8"?>
<!-- Generator: Adobe Illustrator 25.2.3, SVG Export Plug-In . SVG Version: 6.00 Build 0)  -->
<svg version="1.1" id="Layer_1" xmlns="http://www.w3.org/2000/svg" xmlns:xlink="http://www.w3.org/1999/xlink" x="0px" y="0px"
	 viewBox="0 0 400 116" style="enable-background:new 0 0 400 116;" xml:space="preserve">
<style type="text/css">
	.st0{fill:#474747;}
	.st1{fill:#2489BD;}
</style>
<g>
	<path class="st0" d="M89.7,32.8c14.9-13.7,34-9.2,43.5,1.4c12.1,13.5,12.2,34.4-0.3,48.1c-9.1,10-27.5,15-43,1.5
		c0,9.6-0.1,18.6,0.1,27.7c0.1,3.3-0.6,4.6-4.3,4.6c-12.6-0.1-12.6,0.1-12.6-12.6c0-24.3,0.1-48.6-0.1-72.9c0-3.7,0.8-5.2,4.6-4.6
		c2,0.3,4,0.2,6,0C88,25.4,91.2,26.1,89.7,32.8z M107.3,76c11,0,18.2-7.1,18.1-18c0-10.6-7.4-18-17.8-18C97,40,89.9,47.2,89.9,57.9
		C89.8,68.8,96.7,76,107.3,76z"/>
	<path class="st0" d="M171.2,32.7c15.4-11.7,31.4-11.2,43,1c12.2,12.8,13,33.5,1.7,46.9c-11.8,14-26.7,15.2-44.8,3.2
		c1.7,6.7-2.2,6.5-6.8,6.4c-9.5-0.2-9.5-0.1-9.5-9.7c0-25.1,0.1-50.2-0.1-75.4c0-3.6,0.5-5.2,4.7-5.1c11.7,0.3,11.7,0,11.7,11.6
		C171.2,18.4,171.2,25.2,171.2,32.7z M189.3,76c10.5,0,17.7-7.1,17.7-17.7c0-10.8-7.3-18.3-17.8-18.3c-10.3,0-18,7.6-17.9,17.9
		C171.3,70.1,180.8,77,189.3,76z"/>
	<path class="st0" d="M266.8,92c-19.4,0-34.1-14.5-34.4-33.7c-0.2-18.9,14.9-34.1,34.1-34.2c19.3,0,34.3,14.8,34.4,33.9
		C300.9,77.1,286,92,266.8,92z M284,58c0-10.1-7.7-17.8-17.6-17.7c-10,0.1-17.4,7.8-17.3,18c0.1,10.1,7.8,17.8,17.7,17.7
		C276.7,75.8,284.1,68.1,284,58z"/>
	<path class="st0" d="M44.8,82.8c-10,9.9-19.9,11.5-30.5,7.1C3.8,85.5,0.2,76.5,0.1,65.8C0,53.8,0.2,41.8,0,29.8c0-2.9,0.6-4,3.8-4
		C17,25.8,17,25.6,17,38.9c0,8.3,0,16.6,0,24.9c0,7.7,3.9,12,11.5,12.9c7,0.8,12.9-3.7,14.6-10.7c1.2-4.9,0.7-9.9,0.8-14.9
		c0.1-7.1,0.2-14.3-0.1-21.4c-0.1-3.2,0.9-3.8,3.9-3.8c12.5-0.1,12.5-0.2,12.5,12.2c0,16-0.1,31.9,0.1,47.9c0,3.2-0.8,4.6-4.1,4.2
		c-2-0.2-4,0-6,0C46.6,90,41.7,91.3,44.8,82.8z"/>
	<path class="st1" d="M301.4,24.2c7.2,0,13.1,0.1,19.1,0c2,0,3,1.1,4.1,2.4c8.1,9.7,16.2,19.4,24.4,29c1.6,1.9,1.7,3.1,0.1,5
		c-8.3,9.7-16.6,19.5-24.8,29.4c-1.2,1.4-2.3,2.1-4.2,2.1c-5.8-0.1-11.6,0-18.5,0c5.7-6.8,10.8-12.9,16-19.1c3.3-4,6.5-8.1,10-11.8
		c2.3-2.4,1.7-3.9-0.2-6.2C318.9,45.1,310.6,35.2,301.4,24.2z"/>
	<path class="st0" d="M355.4,53.1c-0.9-1-1.4-1.6-1.9-2.3c-2.7-3.6-8-6.6-7.8-10.4c0.2-3.5,4.9-6.7,7.7-10.1
		c7.6-9,15.2-18,22.8-27.1c1.8-2.2,3.8-3.3,6.8-3.2c5.3,0.2,10.6,0.1,17,0.1C384.8,18.1,370.2,35.4,355.4,53.1z"/>
	<path class="st0" d="M355.4,63.2c7.9,9.4,15.7,18.6,24.2,28.7c-7.3,0-13.6,0-20,0c-1.4,0-2-0.9-2.8-1.8c-3.4-4.1-6.7-8.2-10.3-12.1
		c-1.5-1.7-1.5-2.8,0.1-4.5C349.7,70.3,352.5,66.8,355.4,63.2z"/>
</g>
</svg>
